<?xml version="1.0" encoding="UTF-8"?><!DOCTYPE svg PUBLIC "-//W3C//DTD SVG 1.1//EN" "http://www.w3.org/Graphics/SVG/1.1/DTD/svg11.dtd"><svg xmlns="http://www.w3.org/2000/svg"><symbol id="icon-close" viewBox="0 0 357 357">
    <path d="M357 35.7L321.3 0 178.5 142.8 35.7 0 0 35.7l142.8 142.8L0 321.3 35.7 357l142.8-142.8L321.3 357l35.7-35.7-142.8-142.8z"/>
</symbol><symbol id="icon-heart" viewBox="0 0 492.719 492.719">
    <path d="M492.719 166.008c0-73.486-59.573-133.056-133.059-133.056-47.985 0-89.891 25.484-113.302 63.569-23.408-38.085-65.332-63.569-113.316-63.569C59.556 32.952 0 92.522 0 166.008c0 40.009 17.729 75.803 45.671 100.178l188.545 188.553a17.17 17.17 0 0 0 24.284 0l188.545-188.553c27.943-24.375 45.674-60.169 45.674-100.178z"/>
</symbol><symbol id="icon-menu-button" viewBox="0 0 459 459">
    <path d="M0 382.5h459v-51H0v51zM0 255h459v-51H0v51zM0 76.5v51h459v-51H0z"/>
</symbol><symbol id="icon-share" viewBox="0 0 59 59">
    <path d="M47 39a9.934 9.934 0 0 0-7.071 2.929c-.524.524-.975 1.1-1.365 1.709l-17.28-10.489A9.93 9.93 0 0 0 22 29.456a9.949 9.949 0 0 0-.715-3.693l17.284-10.409C40.345 18.142 43.456 20 47 20c5.514 0 10-4.486 10-10S52.514 0 47 0 37 4.486 37 10a9.94 9.94 0 0 0 .667 3.562L20.361 23.985c-1.788-2.724-4.866-4.529-8.361-4.529-5.514 0-10 4.486-10 10s4.486 10 10 10c3.495 0 6.572-1.805 8.36-4.529L37.664 45.43A9.987 9.987 0 0 0 37 49a9.932 9.932 0 0 0 2.929 7.071C41.818 57.96 44.329 59 47 59s5.182-1.04 7.071-2.929C55.96 54.183 57 51.671 57 49s-1.04-5.183-2.929-7.071A9.934 9.934 0 0 0 47 39z"/>
</symbol></svg>